<?xml version="1.0" encoding="ISO-8859-1" standalone="no"?>
<!DOCTYPE svg PUBLIC "-//W3C//DTD SVG 1.1//EN" "http://www.w3.org/Graphics/SVG/1.1/DTD/svg11.dtd">
<svg version="1.1" baseProfile="full" id="body" width="8in" height="8in" viewBox="0 0 1 1" preserveAspectRatio="none" xmlns="http://www.w3.org/2000/svg" xmlns:xlink="http://www.w3.org/1999/xlink" xmlns:ev="http://www.w3.org/2001/xml-events">
<title>SVG drawing</title>
<desc>This was produced by version 4.4 of GNU libplot, a free library for exporting 2-D vector graphics.</desc>
<rect id="background" x="0" y="0" width="1" height="1" stroke="none" fill="white"/>
<g id="content" transform="translate(0.10938,0.38438) scale(1,-1) scale(0.125) " xml:space="preserve" stroke="black" stroke-linecap="butt" stroke-linejoin="miter" stroke-miterlimit="10.433" stroke-dasharray="none" stroke-dashoffset="0" stroke-opacity="1" fill="none" fill-rule="evenodd" fill-opacity="1" font-style="normal" font-variant="normal" font-weight="normal" font-stretch="normal" font-size-adjust="none" letter-spacing="normal" word-spacing="normal" text-anchor="start">
<rect x="1.25" y="-0.15" width="0.75" height="0.3" stroke-width="0.0094118" />
<text transform="translate(1.4282,-0.049028) scale(1,-1) scale(0.0069444) " font-family="Helvetica,sans-serif" font-size="20px" stroke="none" fill="black" >Admin</text>
<line x1="1.35" y1="-0.07" x2="1.9" y2="-0.07" stroke-width="0.0094118" />
<rect x="2.5" y="-0.15" width="0.75" height="0.3" stroke-width="0.0094118" />
<text transform="translate(2.5317,-0.049028) scale(1,-1) scale(0.0069444) " font-family="Helvetica,sans-serif" font-size="20px" stroke="none" fill="black" >Disp Driver</text>
<line x1="2.6" y1="-0.07" x2="3.15" y2="-0.07" stroke-width="0.0094118" />
<rect x="3.75" y="-0.15" width="0.75" height="0.3" stroke-width="0.0094118" />
<text transform="translate(3.712,-0.049028) scale(1,-1) scale(0.0069444) " font-family="Helvetica,sans-serif" font-size="20px" stroke="none" fill="black" >State Monitor</text>
<line x1="3.85" y1="-0.07" x2="4.4" y2="-0.07" stroke-width="0.0094118" />
<rect x="5" y="-0.15" width="0.75" height="0.3" stroke-width="0.0094118" />
<text transform="translate(5.1474,-0.049028) scale(1,-1) scale(0.0069444) " font-family="Helvetica,sans-serif" font-size="20px" stroke="none" fill="black" >Display</text>
<line x1="5.1" y1="-0.07" x2="5.65" y2="-0.07" stroke-width="0.0094118" />
<line x1="1.625" y1="-0.15" x2="1.625" y2="-0.25" stroke-width="0.0094118" stroke-dasharray="0.05, 0.05"/>
<line x1="1.575" y1="-0.25" x2="1.675" y2="-0.25" stroke-width="0.0094118" />
<line x1="1.685" y1="-0.5" x2="4.065" y2="-0.5" stroke-width="0.0094118" />
<polygon points="3.965,-0.475 4.065,-0.5 3.965,-0.525 " stroke-width="0.0094118" fill="black" />
<text transform="translate(2.2845,-0.46569) scale(1,-1) scale(0.0069444) " font-family="Helvetica,sans-serif" font-size="20px" stroke="none" fill="black" >Choose New Mode</text>
<text transform="translate(2.8557,-0.63236) scale(1,-1) scale(0.0069444) " font-family="Helvetica,sans-serif" font-size="20px" stroke="none" fill="black" > </text>
<line x1="4.125" y1="-0.15" x2="4.125" y2="-0.5" stroke-width="0.0094118" stroke-dasharray="0.05, 0.05"/>
<line x1="4.075" y1="-0.5" x2="4.175" y2="-0.5" stroke-width="0.0094118" />
<line x1="4.065" y1="-0.75" x2="2.935" y2="-0.75" stroke-width="0.0094118" />
<polygon points="3.035,-0.775 2.935,-0.75 3.035,-0.725 " stroke-width="0.0094118" fill="black" />
<text transform="translate(3.0985,-0.71569) scale(1,-1) scale(0.0069444) " font-family="Helvetica,sans-serif" font-size="20px" stroke="none" fill="black" >Sign Change</text>
<text transform="translate(3.4807,-0.88236) scale(1,-1) scale(0.0069444) " font-family="Helvetica,sans-serif" font-size="20px" stroke="none" fill="black" > </text>
<line x1="2.875" y1="-0.15" x2="2.875" y2="-0.75" stroke-width="0.0094118" stroke-dasharray="0.05, 0.05"/>
<line x1="2.825" y1="-0.75" x2="2.925" y2="-0.75" stroke-width="0.0094118" />
<line x1="2.935" y1="-1" x2="4.065" y2="-1" stroke-width="0.0094118" />
<polygon points="3.965,-0.975 4.065,-1 3.965,-1.025 " stroke-width="0.0094118" fill="black" />
<text transform="translate(3.0408,-0.96569) scale(1,-1) scale(0.0069444) " font-family="Helvetica,sans-serif" font-size="20px" stroke="none" fill="black" >Trigger Alarm?</text>
<text transform="translate(3.4807,-1.1324) scale(1,-1) scale(0.0069444) " font-family="Helvetica,sans-serif" font-size="20px" stroke="none" fill="black" > </text>
<line x1="4.065" y1="-1.25" x2="2.935" y2="-1.25" stroke-width="0.0094118" />
<polygon points="3.035,-1.275 2.935,-1.25 3.035,-1.225 " stroke-width="0.0094118" fill="black" />
<text transform="translate(3.2723,-1.2157) scale(1,-1) scale(0.0069444) " font-family="Helvetica,sans-serif" font-size="20px" stroke="none" fill="black" >Yes/No</text>
<text transform="translate(3.4807,-1.3824) scale(1,-1) scale(0.0069444) " font-family="Helvetica,sans-serif" font-size="20px" stroke="none" fill="black" > </text>
<line x1="2.935" y1="-1.5" x2="5.315" y2="-1.5" stroke-width="0.0094118" />
<polygon points="5.215,-1.475 5.315,-1.5 5.215,-1.525 " stroke-width="0.0094118" fill="black" />
<text transform="translate(3.2837,-1.4657) scale(1,-1) scale(0.0069444) " font-family="Helvetica,sans-serif" font-size="20px" stroke="none" fill="black" >Send Display Mode / Alarm</text>
<text transform="translate(4.1057,-1.6324) scale(1,-1) scale(0.0069444) " font-family="Helvetica,sans-serif" font-size="20px" stroke="none" fill="black" > </text>
<line x1="5.375" y1="-0.15" x2="5.375" y2="-1.5" stroke-width="0.0094118" stroke-dasharray="0.05, 0.05"/>
<line x1="5.325" y1="-1.5" x2="5.425" y2="-1.5" stroke-width="0.0094118" />
<line x1="5.315" y1="-1.75" x2="1.685" y2="-1.75" stroke-width="0.0094118" />
<polygon points="1.785,-1.775 1.685,-1.75 1.785,-1.725 " stroke-width="0.0094118" fill="black" />
<text transform="translate(3.2915,-1.7157) scale(1,-1) scale(0.0069444) " font-family="Helvetica,sans-serif" font-size="20px" stroke="none" fill="black" >Output</text>
<text transform="translate(3.4807,-1.8824) scale(1,-1) scale(0.0069444) " font-family="Helvetica,sans-serif" font-size="20px" stroke="none" fill="black" > </text>
<line x1="1.575" y1="-0.25" x2="1.575" y2="-2" stroke-width="0.0094118" />
<line x1="1.675" y1="-0.25" x2="1.675" y2="-2" stroke-width="0.0094118" />
<line x1="1.575" y1="-2" x2="1.675" y2="-2" stroke-width="0.0094118" />
<line x1="4.075" y1="-0.5" x2="4.075" y2="-2" stroke-width="0.0094118" />
<line x1="4.175" y1="-0.5" x2="4.175" y2="-2" stroke-width="0.0094118" />
<line x1="4.075" y1="-2" x2="4.175" y2="-2" stroke-width="0.0094118" />
<line x1="2.825" y1="-0.75" x2="2.825" y2="-2" stroke-width="0.0094118" />
<line x1="2.925" y1="-0.75" x2="2.925" y2="-2" stroke-width="0.0094118" />
<line x1="2.825" y1="-2" x2="2.925" y2="-2" stroke-width="0.0094118" />
<line x1="5.325" y1="-1.5" x2="5.325" y2="-2" stroke-width="0.0094118" />
<line x1="5.425" y1="-1.5" x2="5.425" y2="-2" stroke-width="0.0094118" />
<line x1="5.325" y1="-2" x2="5.425" y2="-2" stroke-width="0.0094118" />
</g>
</svg>
