<?xml version="1.0" encoding="UTF-8" standalone="no"?>
<!DOCTYPE svg PUBLIC "-//W3C//DTD SVG 1.1//EN"
 "http://www.w3.org/Graphics/SVG/1.1/DTD/svg11.dtd">
<!-- Generated by graphviz version 2.29.0 (20121015.0425)
 -->
<!-- Title: G Pages: 1 -->
<svg width="484pt" height="240pt"
 viewBox="0.00 0.00 484.00 240.00" xmlns="http://www.w3.org/2000/svg" xmlns:xlink="http://www.w3.org/1999/xlink">
<g id="graph0" class="graph" transform="scale(1 1) rotate(0) translate(4 236)">
<title>G</title>
<polygon fill="white" stroke="white" points="-4,5 -4,-236 481,-236 481,5 -4,5"/>
<!-- user -->
<!-- log_in -->
<g id="node3" class="node"><title>log_in</title>
<ellipse fill="none" stroke="black" cx="152" cy="-182" rx="35.9954" ry="18"/>
<text text-anchor="middle" x="152" y="-178.3" font-family="Times,serif" font-size="14.00">Log In</text>
</g>
<!-- user&#45;&gt;log_in -->
<g id="edge2" class="edge"><title>user&#45;&gt;log_in</title>
<path fill="none" stroke="black" d="M54.0851,-182C72.1379,-182 96.3666,-182 116.082,-182"/>
</g>
<!-- admin -->
<!-- admin&#45;&gt;user -->
<g id="edge1" class="edge"><title>admin&#45;&gt;user</title>
<path fill="none" stroke="black" d="M27,-83.5625C27,-99.1236 27,-114.685 27,-130.246"/>
<polygon fill="none" stroke="black" points="23.5001,-130.472 27,-140.472 30.5001,-130.472 23.5001,-130.472"/>
</g>
<!-- manage_user -->
<g id="node4" class="node"><title>manage_user</title>
<ellipse fill="none" stroke="black" cx="152" cy="-42" rx="59.5901" ry="18"/>
<text text-anchor="middle" x="152" y="-38.3" font-family="Times,serif" font-size="14.00">Manage User</text>
</g>
<!-- admin&#45;&gt;manage_user -->
<g id="edge3" class="edge"><title>admin&#45;&gt;manage_user</title>
<path fill="none" stroke="black" d="M54.0851,-42C65.2271,-42 78.7216,-42 92.0556,-42"/>
</g>
<!-- log_in&#45;&gt;manage_user -->
<g id="edge4" class="edge"><title>log_in&#45;&gt;manage_user</title>
<path fill="none" stroke="black" stroke-dasharray="5,2" d="M152,-163.609C152,-136.659 152,-86.75 152,-60.0159"/>
<text text-anchor="middle" x="141.5" y="-108.3" font-family="Times,serif" font-size="14.00">&lt;&lt;extend&gt;&gt;</text>
</g>
<!-- log_in_pwd -->
<g id="node5" class="node"><title>log_in_pwd</title>
<ellipse fill="none" stroke="black" cx="398" cy="-214" rx="73.387" ry="18"/>
<text text-anchor="middle" x="398" y="-210.3" font-family="Times,serif" font-size="14.00">Log In Password</text>
</g>
<!-- log_in&#45;&gt;log_in_pwd -->
<g id="edge5" class="edge"><title>log_in&#45;&gt;log_in_pwd</title>
<path fill="none" stroke="black" stroke-dasharray="5,2" d="M186.671,-186.416C224.192,-191.337 285.736,-199.408 332.582,-205.552"/>
<text text-anchor="middle" x="266" y="-203.8" font-family="Times,serif" font-size="14.00">&lt;&lt;extend&gt;&gt;</text>
</g>
<!-- log_in_cert -->
<g id="node6" class="node"><title>log_in_cert</title>
<ellipse fill="none" stroke="black" cx="398" cy="-160" rx="77.1866" ry="18"/>
<text text-anchor="middle" x="398" y="-156.3" font-family="Times,serif" font-size="14.00">Log In Certificate</text>
</g>
<!-- log_in&#45;&gt;log_in_cert -->
<g id="edge6" class="edge"><title>log_in&#45;&gt;log_in_cert</title>
<path fill="none" stroke="black" stroke-dasharray="5,2" d="M187.442,-178.895C223.173,-175.673 280.083,-170.542 325.584,-166.439"/>
<text text-anchor="middle" x="266" y="-177.8" font-family="Times,serif" font-size="14.00">&lt;&lt;extend&gt;&gt;</text>
</g>
<!-- change_email -->
<g id="node7" class="node"><title>change_email</title>
<ellipse fill="none" stroke="black" cx="398" cy="-85" rx="63.8893" ry="18"/>
<text text-anchor="middle" x="398" y="-81.3" font-family="Times,serif" font-size="14.00">Change Email</text>
</g>
<!-- manage_user&#45;&gt;change_email -->
<g id="edge7" class="edge"><title>manage_user&#45;&gt;change_email</title>
<path fill="none" stroke="black" stroke-dasharray="5,2" d="M201.404,-52.4013C210.871,-54.3386 220.736,-56.2894 230,-58 266.968,-64.8258 308.718,-71.5758 341.226,-76.6193"/>
<text text-anchor="middle" x="266" y="-73.8" font-family="Times,serif" font-size="14.00">&lt;&lt;extend&gt;&gt;</text>
</g>
<!-- change_pwd -->
<g id="node8" class="node"><title>change_pwd</title>
<ellipse fill="none" stroke="black" cx="398" cy="-31" rx="76.8869" ry="18"/>
<text text-anchor="middle" x="398" y="-27.3" font-family="Times,serif" font-size="14.00">Change Password</text>
</g>
<!-- manage_user&#45;&gt;change_pwd -->
<g id="edge8" class="edge"><title>manage_user&#45;&gt;change_pwd</title>
<path fill="none" stroke="black" stroke-dasharray="5,2" d="M211.444,-39.3652C244.717,-37.8652 286.74,-35.9707 322.378,-34.3641"/>
<text text-anchor="middle" x="266" y="-42.8" font-family="Times,serif" font-size="14.00">&lt;&lt;extend&gt;&gt;</text>
</g>
</g>
</svg>
